#!OML:ASF H:\Male1\Project 1\Capture day 1\Session 1\Male1.ASF
:FULLY-SPECIFIED
:DEGREES
493
root 19.3255 14.118 -4.13564 217.382 86.2018 -169.172
lowerback 40.0769 -1.95911 -1.07716
upperback 19.8344 0.308958 -2.33909
thorax 2.54535 1.31114 -1.95772
lowerneck -1.79613 6.81774 13.2199
upperneck -10.5894 8.69444 -11.3559
head -1.72877 4.40289 -5.6111
rclavicle -4.65156e-014 -3.4427e-014
rhumerus 55.3994 17.7841 -64.0083
rradius 41.724
rwrist -48.0947
rhand -23.11 -1.14237
rfingers 7.12502
rthumb 3.3369 -31.096
lclavicle -4.65156e-014 -3.4427e-014
lhumerus 52.6433 -7.9907 65.8437
lradius 44.1945
lwrist 26.2307
lhand -18.8672 13.1518
lfingers 7.12502
lthumb 7.43329 43.0012
rfemur -69.7528 -1.83768 27.8971
rtibia 60.5781
rfoot -18.9809 -15.4354
rtoes -25.9025
lfemur -70.404 -0.90795 -18.603
ltibia 61.8414
lfoot -17.225 11.575
ltoes -8.85192
494
root 19.3686 14.0661 -4.1546 220.737 86.2137 -166.584
lowerback 40.31 -1.80212 -1.21706
upperback 19.8508 0.455529 -2.29681
thorax 2.50499 1.36457 -1.88956
lowerneck -1.74976 6.69756 13.4031
upperneck -10.93 8.51165 -11.6332
head -1.83461 4.31673 -5.74444
rclavicle -1.27222e-014 -2.74882e-016
rhumerus 56.1379 17.2734 -63.7982
rradius 41.4474
rwrist -48.0368
rhand -23.4067 -1.11738
rfingers 7.12502
rthumb 3.05038 -31.0753
lclavicle -1.27222e-014 -2.74882e-016
lhumerus 53.7749 -7.85721 65.8948
lradius 43.5904
lwrist 26.051
lhand -19.0398 12.8074
lfingers 7.12502
lthumb 7.26676 42.6626
rfemur -70.9928 -1.85441 28.2019
rtibia 61.5006
rfoot -19.3019 -15.2574
rtoes -25.9835
lfemur -71.7127 -0.733131 -18.5841
ltibia 62.8465
lfoot -17.6834 11.4919
ltoes -8.38889
495
root 19.4113 14.0189 -4.16997 223.119 86.2262 -164.873
lowerback 40.6188 -1.65751 -1.42597
upperback 19.8467 0.562591 -2.3336
thorax 2.42095 1.40134 -1.85884
lowerneck -1.80487 6.5738 13.6698
upperneck -11.1302 8.33443 -11.6862
head -1.89322 4.2202 -5.81363
rclavicle -1.11319e-014 3.65888e-015
rhumerus 56.7671 16.825 -63.7616
rradius 41.2121
rwrist -48.0516
rhand -23.7276 -1.09378
rfingers 7.12502
rthumb 2.74044 -31.0559
lclavicle -1.11319e-014 3.65888e-015
lhumerus 54.9859 -7.8556 65.4756
lradius 42.8213
lwrist 25.9743
lhand -19.5888 12.3663
lfingers 7.12502
lthumb 6.73674 42.2391
rfemur -72.1065 -1.8902 28.4474
rtibia 62.4038
rfoot -19.6133 -15.1137
rtoes -26.1065
lfemur -72.8723 -0.597456 -18.6158
ltibia 63.7897
lfoot -18.1009 11.5112
ltoes -8.57614
496
root 19.4515 13.9702 -4.18352 225.135 86.2499 -163.564
lowerback 40.8334 -1.52223 -1.65631
upperback 19.8094 0.637443 -2.44125
thorax 2.32636 1.42328 -1.88177
lowerneck -1.98902 6.44817 13.9197
upperneck -11.1785 8.16912 -11.4244
head -1.90503 4.11664 -5.77276
rclavicle -8.34896e-015 -1.54679e-014
rhumerus 57.2822 16.4313 -63.8678
rradius 40.9933
rwrist -48.1451
rhand -24.1073 -1.02503
rfingers 7.12502
rthumb 2.3737 -30.9916
lclavicle -8.34896e-015 -1.54679e-014
lhumerus 56.2406 -7.96978 64.6255
lradius 41.921
lwrist 25.9429
lhand -20.3729 11.8961
lfingers 7.12502
lthumb 5.97984 41.7917
rfemur -73.2812 -1.90934 28.6652
rtibia 63.3102
rfoot -19.8972 -15.011
rtoes -26.3397
lfemur -74.0895 -0.478524 -18.6766
ltibia 64.7275
lfoot -18.4935 11.6528
ltoes -9.64303
497
root 19.49 13.9178 -4.19584 227.106 86.3001 -162.282
lowerback 41.1332 -1.36545 -1.91799
upperback 19.6201 0.707472 -2.57861
thorax 2.20679 1.44454 -1.93396
lowerneck -2.29902 6.30961 14.073
upperneck -11.0723 8.00121 -10.8183
head -1.87538 4.00226 -5.60073
rclavicle 4.96962e-014 3.04265e-014
rhumerus 57.694 16.0613 -64.0381
rradius 40.7563
rwrist -48.2957
rhand -24.5482 -0.931647
rfingers 7.12502
rthumb 1.94792 -30.9025
lclavicle 4.96962e-014 3.04265e-014
lhumerus 57.4878 -8.1882 63.481
lradius 40.9492
lwrist 25.8818
lhand -21.2155 11.5473
lfingers 7.12502
lthumb 5.16627 41.4643
rfemur -74.4471 -1.88184 28.8437
rtibia 64.2175
rfoot -20.1921 -14.9537
rtoes -26.5956
lfemur -75.3021 -0.373113 -18.7439
ltibia 65.68
lfoot -18.921 11.9251
ltoes -11.4731
498
root 19.5266 13.863 -4.20591 229.462 86.3508 -160.59
lowerback 41.26 -1.18543 -2.16968
upperback 19.5306 0.808269 -2.71356
thorax 2.07816 1.47633 -1.98483
lowerneck -2.68549 6.14399 14.058
upperneck -10.869 7.81283 -9.88882
head -1.8307 3.87492 -5.29794
rclavicle 5.1684e-014 3.37934e-014
rhumerus 58.0146 15.688 -64.1988
rradius 40.4765
rwrist -48.4577
rhand -25.0422 -0.794979
rfingers 7.12502
rthumb 1.47077 -30.7697
lclavicle 5.1684e-014 3.37934e-014
lhumerus 58.684 -8.49171 62.208
lradius 39.9696
lwrist 25.7102
lhand -21.9521 11.5017
lfingers 7.12502
lthumb 4.45507 41.4348
rfemur -75.5813 -1.7934 29.0157
rtibia 65.1233
rfoot -20.5489 -14.9212
rtoes -26.7814
lfemur -76.4992 -0.268755 -18.765
ltibia 66.6575
lfoot -19.4313 12.2526
ltoes -13.5725
499
root 19.5615 13.8071 -4.21403 232.161 86.3686 -158.498
lowerback 41.3533 -0.993362 -2.38983
upperback 19.4359 0.931839 -2.81256
thorax 1.95297 1.51837 -2.021
lowerneck -3.13312 5.96124 13.886
upperneck -10.6042 7.6062 -8.78256
head -1.77235 3.74226 -4.91424
rclavicle 3.29983e-014 1.62755e-014
rhumerus 58.259 15.3122 -64.3189
rradius 40.1488
rwrist -48.5886
rhand -25.5525 -0.595137
rfingers 7.12502
rthumb 0.977911 -30.5726
lclavicle 3.29983e-014 1.62755e-014
lhumerus 59.777 -8.83594 60.9547
lradius 39.0589
lwrist 25.3815
lhand -22.4923 11.7769
lfingers 7.12502
lthumb 3.93337 41.7204
rfemur -76.6379 -1.6651 29.1949
rtibia 66.0196
rfoot -20.972 -14.9082
rtoes -26.9117
lfemur -77.6263 -0.182289 -18.7129
ltibia 67.6408
lfoot -20.0359 12.5478
ltoes -15.3702
500
root 19.5938 13.748 -4.22239 234.963 86.3789 -156.28
lowerback 41.3681 -0.809336 -2.58446
upperback 19.3435 1.0529 -2.89681
thorax 1.85161 1.55894 -2.05261
lowerneck -3.57696 5.78176 13.6382
upperneck -10.3397 7.40431 -7.65621
head -1.71357 3.61885 -4.51466
rclavicle 5.12864e-014 6.65929e-014
rhumerus 58.4538 14.9447 -64.4357
rradius 39.7899
rwrist -48.5998
rhand -25.9722 -0.426966
rfingers 7.12502
rthumb 0.572596 -30.4059
lclavicle 5.12864e-014 6.65929e-014
lhumerus 60.7144 -9.16365 59.7936
lradius 38.2946
lwrist 24.9213
lhand -22.8863 12.1667
lfingers 7.12502
lthumb 3.55286 42.1168
rfemur -77.6916 -1.50941 29.3565
rtibia 66.9161
rfoot -21.3854 -14.9111
rtoes -27.0622
lfemur -78.7315 -0.122256 -18.6317
ltibia 68.6171
lfoot -20.6442 12.8229
ltoes -16.701
501
root 19.6259 13.6925 -4.22787 237.193 86.388 -154.504
lowerback 41.4116 -0.620991 -2.82144
upperback 19.2735 1.17328 -2.95045
thorax 1.76809 1.59666 -2.03012
lowerneck -3.92685 5.61365 13.4106
upperneck -10.1752 7.21604 -6.6896
head -1.68518 3.50908 -4.17422
rclavicle 1.90833e-014 4.2689e-014
rhumerus 58.6305 14.6319 -64.4512
rradius 39.4189
rwrist -48.6307
rhand -26.3083 -0.195404
rfingers 7.12502
rthumb 0.247958 -30.175
lclavicle 1.90833e-014 4.2689e-014
lhumerus 61.471 -9.44764 58.7707
lradius 37.7207
lwrist 24.4078
lhand -23.2563 12.4671
lfingers 7.12502
lthumb 3.1956 42.4229
rfemur -78.5925 -1.34303 29.4668
rtibia 67.7874
rfoot -21.7778 -14.9831
rtoes -27.2271
lfemur -79.6516 -0.0754247 -18.5689
ltibia 69.5316
lfoot -21.2004 13.0495
ltoes -17.5706
